<svg width="81" height="81" viewBox="0 0 81 81" fill="none" xmlns="http://www.w3.org/2000/svg">
<path d="M40.4987 80.537C18.4293 80.537 0.46698 62.5801 0.46698 40.5053C0.46698 18.4306 18.4266 0.473633 40.4987 0.473633C62.5708 0.473633 80.5331 18.4306 80.5331 40.5053C80.5331 62.5801 62.5735 80.537 40.4987 80.537ZM40.4987 2.72632C19.67 2.72632 2.72236 19.6821 2.72236 40.5053C2.72236 61.3286 19.6781 78.2816 40.4987 78.2816C61.3193 78.2816 78.275 61.3286 78.275 40.4999C78.275 19.6713 61.3193 2.72094 40.4987 2.72094V2.72632Z" fill="#383838"/>
<path d="M40.4987 81C18.1601 81 -0.00134277 62.8304 -0.00134277 40.5C-0.00134277 18.1696 18.1682 0 40.4987 0C62.8291 0 81.0014 18.1669 81.0014 40.5C81.0014 62.8331 62.8318 81 40.4987 81ZM40.4987 0.936598C18.6823 0.936598 0.935259 18.6836 0.935259 40.5C0.935259 62.3164 18.6823 80.0634 40.4987 80.0634C62.3151 80.0634 80.0621 62.3164 80.0621 40.5C80.0621 18.6836 62.3151 0.936598 40.4987 0.936598ZM40.4987 78.7446C19.4116 78.7446 2.25404 61.587 2.25404 40.5C2.25404 19.413 19.4116 2.25269 40.4987 2.25269C61.5857 2.25269 78.746 19.4103 78.746 40.5C78.746 61.5897 61.5884 78.7446 40.4987 78.7446ZM40.4987 3.18929C19.9257 3.18929 3.19064 19.927 3.19064 40.5C3.19064 61.073 19.9257 77.808 40.4987 77.808C61.0716 77.808 77.8094 61.0703 77.8094 40.5C77.8094 19.9297 61.0716 3.18929 40.4987 3.18929Z" fill="#383838"/>
<path d="M62.4496 24.6694C62.4496 24.6694 59.882 23.9131 52.5479 22.0237C44.786 20.024 41.2091 19.3027 41.2091 19.3027C41.2091 19.3027 37.635 20.024 29.873 22.0237C22.539 23.9077 19.9687 24.6694 19.9687 24.6694C19.9687 24.6694 18.7603 32.0788 22.0868 45.7591C24.7782 56.7938 33.5763 63.9017 41.1957 66.5312C48.8311 63.9017 57.6347 56.8045 60.3207 45.7591C63.6607 32.0922 62.4496 24.6694 62.4496 24.6694ZM37.9579 53.6852L27.6526 43.3799L31.8781 39.1544L37.9579 45.2342L53.3123 29.8933L57.5378 34.1188L37.9579 53.6852Z" fill="#383838"/>
</svg>
